<svg xmlns="http://www.w3.org/2000/svg" version="1.1" xmlns:xlink="http://www.w3.org/1999/xlink" width="512" height="512" x="0" y="0" viewBox="0 0 68 68" style="enable-background:new 0 0 512 512" xml:space="preserve" class=""><g><path fill="#febb50" d="M42.199 2.136h-16.4c-2.017 0-3.28 2.186-2.27 3.934l5.738 9.94h9.465l5.739-9.94c1.01-1.748-.252-3.934-2.272-3.934M39.907 20.64H28.094c-11.686 3.6-20.05 13.253-20.05 24.598 0 .466.014.93.042 1.39.661 10.92 10.125 19.236 21.065 19.236h9.698c10.939 0 20.403-8.317 21.065-19.237.028-.46.042-.923.042-1.389 0-11.345-8.365-20.997-20.049-24.599" opacity="1" data-original="#febb50" class=""></path><path fill="#ffffff" d="M41.208 51.29c-.587.888-1.422 1.597-2.505 2.127-1.083.529-2.338.837-3.762.922l.005 2.199a.905.905 0 0 1-.261.667c-.175.175-.41.264-.697.264a.93.93 0 0 1-.666-.245c-.177-.166-.264-.393-.265-.681l-.005-2.2c-2.231-.14-4.32-.62-6.26-1.441a1.419 1.419 0 0 1-.622-.51 1.318 1.318 0 0 1 .105-1.672c.236-.26.54-.39.913-.391.207 0 .402.04.589.124a14.47 14.47 0 0 0 5.269 1.227l-.016-7.125c-1.406-.37-2.59-.768-3.55-1.2a6.435 6.435 0 0 1-2.405-1.838c-.642-.793-.965-1.8-.968-3.018a5.825 5.825 0 0 1 .784-2.975c.525-.911 1.307-1.666 2.349-2.267s2.295-.966 3.762-1.093l-.005-2.17a.95.95 0 0 1 .262-.68.87.87 0 0 1 .664-.28.925.925 0 0 1 .683.277c.186.185.28.413.28.68l.005 2.138c2.023.078 3.82.415 5.392 1.01.579.205.869.618.87 1.237 0 .33-.112.63-.338.899-.227.269-.526.403-.898.404-.123 0-.29-.04-.496-.122-1.405-.492-2.913-.767-4.524-.825l.017 7.372c1.488.347 2.72.726 3.704 1.137a6.254 6.254 0 0 1 2.468 1.837c.662.816.994 1.894.998 3.235a5.27 5.27 0 0 1-.876 2.977m-11.24-10.91c.694.494 1.712.916 3.055 1.263l-.015-6.815c-1.24.169-2.23.547-2.971 1.137-.742.59-1.113 1.36-1.11 2.31.002.909.349 1.61 1.042 2.105m9.326 7.754c-.002-.805-.37-1.43-1.104-1.872-.734-.442-1.824-.858-3.271-1.247l.016 6.66c2.91-.212 4.364-1.393 4.359-3.541" opacity="1" data-original="#ffffff" class=""></path><path fill="#c17e48" d="M44.74 18.332c0 .817-.329 1.562-.866 2.098a2.987 2.987 0 0 1-2.11.866H26.223a2.959 2.959 0 0 1-2.963-2.964c0-.817.329-1.573.866-2.11a2.957 2.957 0 0 1 2.097-.866h15.541a2.973 2.973 0 0 1 2.976 2.976" opacity="1" data-original="#c17e48" class=""></path></g></svg>