<svg xmlns="http://www.w3.org/2000/svg" version="1.1" xmlns:xlink="http://www.w3.org/1999/xlink" width="512" height="512" x="0" y="0" viewBox="0 0 100 100" style="enable-background:new 0 0 512 512" xml:space="preserve" class=""><rect width="100" height="100" rx="20" ry="20" fill="#ffffff" shape="rounded"></rect><g transform="matrix(0.7,0,0,0.7,14.999989063244726,15.005100801587105)"><path d="M100 30.477c0-5.599-4.555-10.153-10.153-10.153a2.5 2.5 0 1 0 0 5A5.159 5.159 0 0 1 95 30.477a5.16 5.16 0 0 1-5.153 5.154c-.013 0-.024.004-.037.004-4.17-5.681-10.171-10.411-17.486-13.507.434-1.53.676-3.126.676-4.759C73 7.659 65.1-.242 55.39-.242c-9.711 0-17.611 7.9-17.611 17.611 0 .997.094 1.98.257 2.943-.239.071-.484.133-.721.207-.329.103-.663.212-1.01.332-3.48-3.564-10.442-9.015-18.685-6.47a2.5 2.5 0 0 0-1.563 3.367c2.296 5.399 3.835 11.504 3.273 12.941a183.43 183.43 0 0 1-1.999 2.005c-1.67 1.66-3.564 3.542-4.636 4.816-.816.926-5.704 1.87-10.255 1.98A2.505 2.505 0 0 0 0 42.013l.138 16.395c.006.677.286 1.322.775 1.789l14.85 14.146c.25.33.506.656.769.979l9.041 23.356a2.5 2.5 0 0 0 2.332 1.598h8.709a2.5 2.5 0 0 0 2.479-2.176l1.087-8.308c8.001 1.991 16.72 2.006 24.729.045l1.082 8.263a2.5 2.5 0 0 0 2.479 2.176h8.709a2.5 2.5 0 0 0 2.331-1.598l8.876-22.931c5.184-6.173 7.92-13.421 7.92-20.99 0-5.08-1.286-10.016-3.636-14.534 4.228-1.227 7.33-5.128 7.33-9.746zM55.39 4.758c6.953 0 12.61 5.657 12.61 12.611 0 5.177-3.235 9.893-8.057 11.761a37.188 37.188 0 0 0-7.308-.733c-1.126 0-2.241.066-3.349.164l.065-.12a12.617 12.617 0 0 1-6.572-11.074c-.001-6.951 5.657-12.609 12.611-12.609zM84.312 72.82a2.495 2.495 0 0 0-.436.728l-8.41 21.728h-4.802l-1.171-8.937a2.499 2.499 0 0 0-3.215-2.064c-4.363 1.345-8.953 2.027-13.644 2.027-4.75 0-9.397-.7-13.813-2.081a2.503 2.503 0 0 0-3.226 2.061l-1.177 8.993h-4.803l-8.567-22.134a2.523 2.523 0 0 0-.41-.697 31.602 31.602 0 0 1-1.004-1.271 2.605 2.605 0 0 0-.275-.31L5.129 57.307 5.02 44.369c3.643-.272 9.368-1.104 11.499-3.636.93-1.105 2.74-2.904 4.337-4.491a170.67 170.67 0 0 0 2.205-2.217c2.67-2.876.791-9.94-1.224-15.298 5.12-.058 9.521 3.986 11.875 6.683a2.5 2.5 0 0 0 2.764.694 43.027 43.027 0 0 1 2.333-.813c.248-.078.502-.143.752-.216a17.61 17.61 0 0 0 3.295 4.655c-.393.108-.792.198-1.181.32-1.439.45-2.85.995-4.194 1.619a2.5 2.5 0 1 0 2.107 4.535 29.245 29.245 0 0 1 3.581-1.382c5.437-1.704 11.577-1.877 17.148-.5 3.168.784 6.097 2.035 8.704 3.719a2.5 2.5 0 0 0 2.713-4.201 32.765 32.765 0 0 0-5.319-2.757 17.815 17.815 0 0 0 3.869-4.375c12.793 5.381 21.022 16.297 21.022 28.048 0 6.494-2.419 12.741-6.994 18.064z" fill="#000000" opacity="1" data-original="#000000" class=""></path><circle cx="26.441" cy="41.759" r="2.5" fill="#000000" opacity="1" data-original="#000000" class=""></circle></g></svg>